<?xml version="1.0" encoding="UTF-8"?><svg xmlns="http://www.w3.org/2000/svg" viewBox="0 0 41.95 73.34"><g style="isolation:isolate;"><g id="b"><g id="c"><path d="m40.02,69.79c.03-.2.05-.41.05-.62V6.78c0-2.17-1.76-3.93-3.93-3.93H4.18c-.84,0-1.61.26-2.25.71.08-.51.26-.99.52-1.42l-1.6,2.55c-.38.6-.6,1.32-.6,2.08v62.38c0,2.17,1.76,3.93,3.93,3.93h31.96c1.53,0,2.72-.89,3.51-2.15.18-.28.77-1.22,1.27-2.02-.25.33-.55.63-.89.87Z" style="fill:#615b67; stroke:#010101; stroke-miterlimit:10; stroke-width:.5px;"/><path d="m41.7,4.18v62.38c0,.88-.29,1.7-.79,2.35-.25.33-.55.63-.89.87-.64.45-1.41.71-2.25.71H5.81c-2.17,0-3.93-1.76-3.93-3.93V4.18c0-.21.02-.42.05-.62.08-.51.26-.99.52-1.42l.03-.05c.7-1.11,1.93-1.84,3.33-1.84h31.96c2.17,0,3.93,1.76,3.93,3.93Z" style="fill:#d1c4dd; stroke:#010101; stroke-miterlimit:10; stroke-width:.5px;"/><rect x="4.29" y="4.87" width="34.99" height="53.22" rx="1.13" ry="1.13" style="fill:#fff; stroke:#010101; stroke-miterlimit:10; stroke-width:.5px;"/><circle cx="21.79" cy="63.89" r="3.71" style="fill:#d1c4dd; stroke:#010101; stroke-miterlimit:10; stroke-width:.5px;"/><rect x="7.81" y="48.53" width="5.2" height="5.2" rx="1.19" ry="1.19" style="fill:#67c189; mix-blend-mode:multiply;"/><rect x="7.81" y="48.53" width="5.2" height="5.2" rx="1.19" ry="1.19" style="fill:none; mix-blend-mode:multiply; stroke:#010101; stroke-miterlimit:10; stroke-width:.5px;"/><rect x="19.25" y="48.53" width="5.2" height="5.2" rx="1.19" ry="1.19" style="fill:#cc9bc7; mix-blend-mode:multiply;"/><rect x="19.25" y="48.53" width="5.2" height="5.2" rx="1.19" ry="1.19" style="fill:none; mix-blend-mode:multiply; stroke:#010101; stroke-miterlimit:10; stroke-width:.5px;"/><rect x="30.57" y="48.53" width="5.2" height="5.2" rx="1.19" ry="1.19" style="fill:#77acdd; mix-blend-mode:multiply;"/><rect x="30.57" y="48.53" width="5.2" height="5.2" rx="1.19" ry="1.19" style="fill:none; mix-blend-mode:multiply; stroke:#010101; stroke-miterlimit:10; stroke-width:.5px;"/><rect x="7.81" y="38" width="5.2" height="5.2" rx="1.19" ry="1.19" style="fill:#fec75f; mix-blend-mode:multiply;"/><rect x="7.81" y="38" width="5.2" height="5.2" rx="1.19" ry="1.19" style="fill:none; mix-blend-mode:multiply; stroke:#010101; stroke-miterlimit:10; stroke-width:.5px;"/><rect x="19.25" y="38" width="5.2" height="5.2" rx="1.19" ry="1.19" style="fill:#f47c4a; mix-blend-mode:multiply;"/><rect x="19.25" y="38" width="5.2" height="5.2" rx="1.19" ry="1.19" style="fill:none; mix-blend-mode:multiply; stroke:#010101; stroke-miterlimit:10; stroke-width:.5px;"/><rect x="7.81" y="28.74" width="27.97" height="5.23" rx="1.19" ry="1.19" style="fill:#fec75f; mix-blend-mode:multiply;"/><rect x="7.81" y="28.74" width="27.97" height="5.23" rx="1.19" ry="1.19" style="fill:none; mix-blend-mode:multiply; stroke:#010101; stroke-miterlimit:10; stroke-width:.5px;"/><rect x="30.57" y="38" width="5.2" height="5.2" rx="1.19" ry="1.19" style="fill:#fec75f; mix-blend-mode:multiply;"/><rect x="30.57" y="38" width="5.2" height="5.2" rx="1.19" ry="1.19" style="fill:none; mix-blend-mode:multiply; stroke:#010101; stroke-miterlimit:10; stroke-width:.5px;"/><rect x="15.99" y="2.14" width="11.6" height="1.31" rx=".65" ry=".65" style="fill:#615b67; stroke:#010101; stroke-miterlimit:10; stroke-width:.5px;"/><rect x="35.76" y="1.88" width="1.83" height="1.83" rx=".91" ry=".91" style="fill:#615b67; stroke:#010101; stroke-miterlimit:10; stroke-width:.5px;"/></g></g></g></svg>