<?xml version="1.0" encoding="UTF-8"?><svg id="b" xmlns="http://www.w3.org/2000/svg" xmlns:xlink="http://www.w3.org/1999/xlink" viewBox="0 0 203.1 124.44"><defs><clipPath id="d"><rect x="140.34" y="55.39" width="51.69" height="58.35" rx="2" ry="2" style="fill:#615b67; stroke:#010101; stroke-miterlimit:10; stroke-width:.5px;"/></clipPath></defs><g id="c"><rect x="136.99" y="120.44" width="58.39" height="4" rx="2" ry="2" style="fill:#010101;"/><rect x="34.75" y="120.44" width="60.77" height="4" rx="2" ry="2" style="fill:#010101;"/><rect x=".25" y=".25" width="129.76" height="90" rx="2" ry="2" style="fill:#615b67; stroke:#010101; stroke-miterlimit:10; stroke-width:.5px;"/><rect x="34.75" y="117.44" width="60.77" height="4" rx="2" ry="2" style="fill:#615b67; stroke:#010101; stroke-miterlimit:10; stroke-width:.5px;"/><rect x="59.51" y="90.25" width="11.24" height="27.19" style="fill:#615b67; stroke:#010101; stroke-miterlimit:10; stroke-width:.5px;"/><rect x="136.99" y=".25" width="58.39" height="121.19" rx="2" ry="2" style="fill:#615b67; stroke:#010101; stroke-miterlimit:10; stroke-width:.5px;"/><rect x="3.41" y="3.59" width="123.45" height="83.31" style="fill:#fff; stroke:#010101; stroke-miterlimit:10; stroke-width:.5px;"/><rect x="3.41" y="82.22" width="123.45" height="4.69" style="fill:#fcc087; stroke:#010101; stroke-miterlimit:10; stroke-width:.5px;"/><rect x="3.41" y="3.59" width="123.45" height="4.69" style="fill:#d1c4dd; stroke:#010101; stroke-miterlimit:10; stroke-width:.5px;"/><rect x="34.75" y="13.6" width="60.77" height="11.27" style="fill:#67c189; stroke:#010101; stroke-miterlimit:10; stroke-width:.5px;"/><rect x="34.75" y="30.49" width="60.77" height="46.97" style="fill:#77acdd; stroke:#010101; stroke-miterlimit:10; stroke-width:.5px;"/><circle cx="19.28" cy="24.33" r="10.72" style="fill:#fcc087; stroke:#010101; stroke-miterlimit:10; stroke-width:.5px;"/><circle cx="188.12" cy="33.08" r="3.91" style="fill:none; stroke:#010101; stroke-miterlimit:10; stroke-width:.5px;"/><rect x="59.51" y="90.25" width="11.24" height="7.45" style="fill:#010101;"/><rect x="3.41" y="3.59" width="123.45" height="2" style="fill:#010101;"/><rect x="140.34" y="3.59" width="51.69" height="21.28" rx="2" ry="2" style="fill:#615b67; stroke:#010101; stroke-miterlimit:10; stroke-width:.5px;"/><rect x="140.34" y="55.39" width="51.69" height="58.35" rx="2" ry="2" style="fill:#615b67;"/><g style="clip-path:url(#d);"><rect x="139.23" y="67.79" width="16.24" height="2.4" rx="1.2" ry="1.2" style="fill:#010101; stroke:#615b67; stroke-miterlimit:10; stroke-width:.5px;"/><rect x="158.06" y="67.79" width="16.24" height="2.4" rx="1.2" ry="1.2" style="fill:#010101; stroke:#615b67; stroke-miterlimit:10; stroke-width:.5px;"/><rect x="176.9" y="67.79" width="16.24" height="2.4" rx="1.2" ry="1.2" style="fill:#010101; stroke:#615b67; stroke-miterlimit:10; stroke-width:.5px;"/><rect x="139.23" y="75.35" width="16.24" height="2.4" rx="1.2" ry="1.2" style="fill:#010101; stroke:#615b67; stroke-miterlimit:10; stroke-width:.5px;"/><rect x="158.06" y="75.35" width="16.24" height="2.4" rx="1.2" ry="1.2" style="fill:#010101; stroke:#615b67; stroke-miterlimit:10; stroke-width:.5px;"/><rect x="176.9" y="75.35" width="16.24" height="2.4" rx="1.2" ry="1.2" style="fill:#010101; stroke:#615b67; stroke-miterlimit:10; stroke-width:.5px;"/><rect x="139.23" y="82.91" width="16.24" height="2.4" rx="1.2" ry="1.2" style="fill:#010101; stroke:#615b67; stroke-miterlimit:10; stroke-width:.5px;"/><rect x="158.06" y="82.91" width="16.24" height="2.4" rx="1.2" ry="1.2" style="fill:#010101; stroke:#615b67; stroke-miterlimit:10; stroke-width:.5px;"/><rect x="176.9" y="82.91" width="16.24" height="2.4" rx="1.2" ry="1.2" style="fill:#010101; stroke:#615b67; stroke-miterlimit:10; stroke-width:.5px;"/><rect x="139.23" y="90.47" width="16.24" height="2.4" rx="1.2" ry="1.2" style="fill:#010101; stroke:#615b67; stroke-miterlimit:10; stroke-width:.5px;"/><rect x="158.06" y="90.47" width="16.24" height="2.4" rx="1.2" ry="1.2" style="fill:#010101; stroke:#615b67; stroke-miterlimit:10; stroke-width:.5px;"/><rect x="176.9" y="90.47" width="16.24" height="2.4" rx="1.2" ry="1.2" style="fill:#010101; stroke:#615b67; stroke-miterlimit:10; stroke-width:.5px;"/><rect x="129.4" y="71.57" width="16.24" height="2.4" rx="1.2" ry="1.2" style="fill:#010101; stroke:#615b67; stroke-miterlimit:10; stroke-width:.5px;"/><rect x="148.23" y="71.57" width="16.24" height="2.4" rx="1.2" ry="1.2" style="fill:#010101; stroke:#615b67; stroke-miterlimit:10; stroke-width:.5px;"/><rect x="186.61" y="71.57" width="16.24" height="2.4" rx="1.2" ry="1.2" style="fill:#010101; stroke:#615b67; stroke-miterlimit:10; stroke-width:.5px;"/><rect x="167.07" y="71.57" width="16.24" height="2.4" rx="1.2" ry="1.2" style="fill:#010101; stroke:#615b67; stroke-miterlimit:10; stroke-width:.5px;"/><rect x="129.4" y="79.13" width="16.24" height="2.4" rx="1.2" ry="1.2" style="fill:#010101; stroke:#615b67; stroke-miterlimit:10; stroke-width:.5px;"/><rect x="148.23" y="79.13" width="16.24" height="2.4" rx="1.2" ry="1.2" style="fill:#010101; stroke:#615b67; stroke-miterlimit:10; stroke-width:.5px;"/><rect x="186.61" y="79.13" width="16.24" height="2.4" rx="1.2" ry="1.2" style="fill:#010101; stroke:#615b67; stroke-miterlimit:10; stroke-width:.5px;"/><rect x="167.07" y="79.13" width="16.24" height="2.4" rx="1.2" ry="1.2" style="fill:#010101; stroke:#615b67; stroke-miterlimit:10; stroke-width:.5px;"/><rect x="129.4" y="86.69" width="16.24" height="2.4" rx="1.2" ry="1.2" style="fill:#010101; stroke:#615b67; stroke-miterlimit:10; stroke-width:.5px;"/><rect x="148.23" y="86.69" width="16.24" height="2.4" rx="1.2" ry="1.2" style="fill:#010101; stroke:#615b67; stroke-miterlimit:10; stroke-width:.5px;"/><rect x="186.61" y="86.69" width="16.24" height="2.4" rx="1.2" ry="1.2" style="fill:#010101; stroke:#615b67; stroke-miterlimit:10; stroke-width:.5px;"/><rect x="167.07" y="86.69" width="16.24" height="2.4" rx="1.2" ry="1.2" style="fill:#010101; stroke:#615b67; stroke-miterlimit:10; stroke-width:.5px;"/><rect x="129.4" y="94.24" width="16.24" height="2.4" rx="1.2" ry="1.2" style="fill:#010101; stroke:#615b67; stroke-miterlimit:10; stroke-width:.5px;"/><rect x="148.23" y="94.24" width="16.24" height="2.4" rx="1.2" ry="1.2" style="fill:#010101; stroke:#615b67; stroke-miterlimit:10; stroke-width:.5px;"/><rect x="186.61" y="94.24" width="16.24" height="2.4" rx="1.2" ry="1.2" style="fill:#010101; stroke:#615b67; stroke-miterlimit:10; stroke-width:.5px;"/><rect x="167.07" y="94.24" width="16.24" height="2.4" rx="1.2" ry="1.2" style="fill:#010101; stroke:#615b67; stroke-miterlimit:10; stroke-width:.5px;"/></g><rect x="140.34" y="55.39" width="51.69" height="58.35" rx="2" ry="2" style="fill:none; stroke:#010101; stroke-miterlimit:10; stroke-width:.5px;"/><rect x="143.14" y="8.28" width="46.08" height="4.49" rx="2" ry="2" style="fill:#615b67; stroke:#010101; stroke-miterlimit:10; stroke-width:.5px;"/><rect x="143.14" y="15.86" width="9.83" height="1.97" rx=".99" ry=".99" style="fill:#615b67; stroke:#010101; stroke-miterlimit:10; stroke-width:.5px;"/><rect x="143.14" y="29.17" width="7.69" height="1.97" rx=".99" ry=".99" style="fill:#615b67; stroke:#010101; stroke-miterlimit:10; stroke-width:.5px;"/><rect x="143.14" y="35.02" width="7.69" height="1.97" rx=".99" ry=".99" style="fill:#615b67; stroke:#010101; stroke-miterlimit:10; stroke-width:.5px;"/><rect x="156.35" y="15.86" width="1.97" height="1.97" rx=".99" ry=".99" style="fill:#67c189; stroke:#010101; stroke-miterlimit:10; stroke-width:.5px;"/><rect x="176.91" y="32.98" width="1.97" height="1.97" rx=".99" ry=".99" style="fill:#67c189; stroke:#010101; stroke-miterlimit:10; stroke-width:.5px;"/><line x1="136.99" y1="45.17" x2="195.38" y2="45.17" style="fill:none; stroke:#010101; stroke-miterlimit:10; stroke-width:.5px;"/></g></svg>