<?xml version="1.0" encoding="UTF-8"?><svg id="b" xmlns="http://www.w3.org/2000/svg" xmlns:xlink="http://www.w3.org/1999/xlink" viewBox="0 0 120.37 78.59"><defs><clipPath id="d"><rect x=".19" y="52.46" width="119.82" height="23.45" rx="1.78" ry="1.78" style="fill:none;"/></clipPath><clipPath id="e"><rect x=".19" y="52.46" width="119.82" height="23.45" rx="1.78" ry="1.78" style="fill:#615b67; stroke:#010101; stroke-miterlimit:10; stroke-width:.38px;"/></clipPath><clipPath id="f"><rect x=".19" y="52.46" width="119.82" height="23.45" rx="1.78" ry="1.78" style="fill:none;"/></clipPath><clipPath id="g"><rect x=".19" y="26.32" width="119.82" height="23.45" rx="1.78" ry="1.78" style="fill:none;"/></clipPath><clipPath id="h"><rect x=".19" y="26.32" width="119.82" height="23.45" rx="1.78" ry="1.78" style="fill:#615b67; stroke:#010101; stroke-miterlimit:10; stroke-width:.38px;"/></clipPath><clipPath id="i"><rect x=".19" y="26.32" width="119.82" height="23.45" rx="1.78" ry="1.78" style="fill:none;"/></clipPath><clipPath id="j"><rect x=".35" y=".19" width="119.82" height="23.45" rx="1.78" ry="1.78" style="fill:none;"/></clipPath><clipPath id="k"><rect x=".35" y=".19" width="119.82" height="23.45" rx="1.78" ry="1.78" style="fill:#615b67; stroke:#010101; stroke-miterlimit:10; stroke-width:.38px;"/></clipPath><clipPath id="l"><rect x=".35" y=".19" width="119.82" height="23.45" rx="1.78" ry="1.78" style="fill:none;"/></clipPath></defs><g id="c"><rect x=".19" y="74.6" width="119.82" height="3.99" rx="1.78" ry="1.78" style="fill:#010101;"/><g style="clip-path:url(#d);"><rect x=".19" y="52.46" width="8.25" height="23.45" style="fill:#d1c4dd;"/><rect x="12.42" y="59.18" width="97.17" height="14.91" rx="1.31" ry="1.31" style="fill:#d1c4dd;"/><rect x="111.84" y="54.46" width="5.44" height="19.64" rx="1.31" ry="1.31" style="fill:#d1c4dd;"/></g><rect x=".19" y="52.46" width="119.82" height="23.45" rx="1.78" ry="1.78" style="fill:#615b67;"/><g style="clip-path:url(#e);"><rect x=".19" y="52.46" width="8.25" height="23.45" style="fill:#f47c4a;"/><rect x="12.42" y="59.18" width="97.17" height="14.91" rx="1.31" ry="1.31" style="fill:#615b67; stroke:#010101; stroke-miterlimit:10; stroke-width:.46px;"/><rect x="111.84" y="54.46" width="5.44" height="19.64" rx="1.31" ry="1.31" style="fill:#615b67; stroke:#010101; stroke-miterlimit:10; stroke-width:.46px;"/></g><rect x=".19" y="52.46" width="119.82" height="23.45" rx="1.78" ry="1.78" style="fill:none; stroke:#010101; stroke-miterlimit:10; stroke-width:.38px;"/><g style="clip-path:url(#f);"><rect x=".19" y="52.46" width="8.25" height="23.45" style="fill:none; stroke:#010101; stroke-miterlimit:10; stroke-width:.5px;"/><rect x="12.42" y="59.18" width="97.17" height="14.91" rx="1.31" ry="1.31" style="fill:none; stroke:#010101; stroke-miterlimit:10; stroke-width:.5px;"/><rect x="111.84" y="54.46" width="5.44" height="19.64" rx="1.31" ry="1.31" style="fill:none; stroke:#010101; stroke-miterlimit:10; stroke-width:.5px;"/></g><rect x="2.64" y="54.46" width="3.41" height="3.41" rx="1.7" ry="1.7" style="fill:#67c189; stroke:#010101; stroke-miterlimit:10; stroke-width:.5px;"/><rect x="105.92" y="54.46" width="3.41" height="3.41" rx="1.7" ry="1.7" style="fill:#615b67; stroke:#010101; stroke-miterlimit:10; stroke-width:.5px;"/><rect x="100.87" y="54.46" width="3.41" height="3.41" rx="1.7" ry="1.7" style="fill:#615b67; stroke:#010101; stroke-miterlimit:10; stroke-width:.5px;"/><rect x="95.81" y="54.46" width="3.41" height="3.41" rx="1.7" ry="1.7" style="fill:#615b67; stroke:#010101; stroke-miterlimit:10; stroke-width:.5px;"/><rect x="90.76" y="54.46" width="3.41" height="3.41" rx="1.7" ry="1.7" style="fill:#615b67; stroke:#010101; stroke-miterlimit:10; stroke-width:.5px;"/><rect x="3.36" y="68.35" width="1.97" height="1.97" rx=".98" ry=".98" style="fill:#fec75f; stroke:#010101; stroke-miterlimit:10; stroke-width:.5px;"/><rect x="3.36" y="71.57" width="1.97" height="1.97" rx=".98" ry=".98" style="fill:#fec75f; stroke:#010101; stroke-miterlimit:10; stroke-width:.5px;"/><rect x="12.47" y="55.18" width="7.68" height="1.97" style="fill:#fff; stroke:#010101; stroke-miterlimit:10; stroke-width:.5px;"/><rect x="39.96" y="55.18" width="7.68" height="1.97" style="fill:#67c189; stroke:#010101; stroke-miterlimit:10; stroke-width:.5px;"/><rect x="26.25" y="55.18" width="7.68" height="1.97" style="fill:#fff; stroke:#010101; stroke-miterlimit:10; stroke-width:.5px;"/><rect x="23.16" y="55.18" width="3.01" height="1.97" style="fill:#fec75f; stroke:#010101; stroke-miterlimit:10; stroke-width:.5px;"/><rect x="33.93" y="55.18" width="3.01" height="1.97" style="fill:#fec75f; stroke:#010101; stroke-miterlimit:10; stroke-width:.5px;"/><rect x="36.94" y="55.18" width="3.01" height="1.97" style="fill:#77acdd; stroke:#010101; stroke-miterlimit:10; stroke-width:.5px;"/><rect x=".19" y="48.46" width="119.82" height="3.99" rx="1.78" ry="1.78" style="fill:#010101;"/><g style="clip-path:url(#g);"><rect x=".19" y="26.32" width="8.25" height="23.45" style="fill:#d1c4dd;"/><rect x="12.42" y="33.05" width="97.17" height="14.91" rx="1.31" ry="1.31" style="fill:#d1c4dd;"/><rect x="111.84" y="28.32" width="5.44" height="19.64" rx="1.31" ry="1.31" style="fill:#d1c4dd;"/></g><rect x=".19" y="26.32" width="119.82" height="23.45" rx="1.78" ry="1.78" style="fill:#615b67;"/><g style="clip-path:url(#h);"><rect x=".19" y="26.32" width="8.25" height="23.45" style="fill:#f47c4a;"/><rect x="12.42" y="33.05" width="97.17" height="14.91" rx="1.31" ry="1.31" style="fill:#615b67; stroke:#010101; stroke-miterlimit:10; stroke-width:.46px;"/><rect x="111.84" y="28.32" width="5.44" height="19.64" rx="1.31" ry="1.31" style="fill:#615b67; stroke:#010101; stroke-miterlimit:10; stroke-width:.46px;"/></g><rect x=".19" y="26.32" width="119.82" height="23.45" rx="1.78" ry="1.78" style="fill:none; stroke:#010101; stroke-miterlimit:10; stroke-width:.38px;"/><g style="clip-path:url(#i);"><rect x=".19" y="26.32" width="8.25" height="23.45" style="fill:none; stroke:#010101; stroke-miterlimit:10; stroke-width:.5px;"/><rect x="12.42" y="33.05" width="97.17" height="14.91" rx="1.31" ry="1.31" style="fill:none; stroke:#010101; stroke-miterlimit:10; stroke-width:.5px;"/><rect x="111.84" y="28.32" width="5.44" height="19.64" rx="1.31" ry="1.31" style="fill:none; stroke:#010101; stroke-miterlimit:10; stroke-width:.5px;"/></g><rect x="2.64" y="28.32" width="3.41" height="3.41" rx="1.7" ry="1.7" style="fill:#67c189; stroke:#010101; stroke-miterlimit:10; stroke-width:.5px;"/><rect x="105.92" y="28.32" width="3.41" height="3.41" rx="1.7" ry="1.7" style="fill:#615b67; stroke:#010101; stroke-miterlimit:10; stroke-width:.5px;"/><rect x="100.87" y="28.32" width="3.41" height="3.41" rx="1.7" ry="1.7" style="fill:#615b67; stroke:#010101; stroke-miterlimit:10; stroke-width:.5px;"/><rect x="95.81" y="28.32" width="3.41" height="3.41" rx="1.7" ry="1.7" style="fill:#615b67; stroke:#010101; stroke-miterlimit:10; stroke-width:.5px;"/><rect x="90.76" y="28.32" width="3.41" height="3.41" rx="1.7" ry="1.7" style="fill:#615b67; stroke:#010101; stroke-miterlimit:10; stroke-width:.5px;"/><rect x="3.36" y="42.21" width="1.97" height="1.97" rx=".98" ry=".98" style="fill:#fec75f; stroke:#010101; stroke-miterlimit:10; stroke-width:.5px;"/><rect x="3.36" y="45.43" width="1.97" height="1.97" rx=".98" ry=".98" style="fill:#fec75f; stroke:#010101; stroke-miterlimit:10; stroke-width:.5px;"/><rect x="12.47" y="29.04" width="7.68" height="1.97" style="fill:#fff; stroke:#010101; stroke-miterlimit:10; stroke-width:.5px;"/><rect x="39.96" y="29.04" width="7.68" height="1.97" style="fill:#67c189; stroke:#010101; stroke-miterlimit:10; stroke-width:.5px;"/><rect x="26.25" y="29.04" width="7.68" height="1.97" style="fill:#fff; stroke:#010101; stroke-miterlimit:10; stroke-width:.5px;"/><rect x="23.16" y="29.04" width="3.01" height="1.97" style="fill:#fec75f; stroke:#010101; stroke-miterlimit:10; stroke-width:.5px;"/><rect x="33.93" y="29.04" width="3.01" height="1.97" style="fill:#fec75f; stroke:#010101; stroke-miterlimit:10; stroke-width:.5px;"/><rect x="36.94" y="29.04" width="3.01" height="1.97" style="fill:#77acdd; stroke:#010101; stroke-miterlimit:10; stroke-width:.5px;"/><rect x=".35" y="22.33" width="119.82" height="3.99" rx="1.78" ry="1.78" style="fill:#010101;"/><g style="clip-path:url(#j);"><rect x=".35" y=".19" width="8.25" height="23.45" style="fill:#d1c4dd;"/><rect x="12.59" y="6.91" width="97.17" height="14.91" rx="1.31" ry="1.31" style="fill:#d1c4dd;"/><rect x="112" y="2.19" width="5.44" height="19.64" rx="1.31" ry="1.31" style="fill:#d1c4dd;"/></g><rect x=".35" y=".19" width="119.82" height="23.45" rx="1.78" ry="1.78" style="fill:#615b67;"/><g style="clip-path:url(#k);"><rect x=".35" y=".19" width="8.25" height="23.45" style="fill:#f47c4a;"/><rect x="12.59" y="6.91" width="97.17" height="14.91" rx="1.31" ry="1.31" style="fill:#615b67; stroke:#010101; stroke-miterlimit:10; stroke-width:.46px;"/><rect x="112" y="2.19" width="5.44" height="19.64" rx="1.31" ry="1.31" style="fill:#615b67; stroke:#010101; stroke-miterlimit:10; stroke-width:.46px;"/></g><rect x=".35" y=".19" width="119.82" height="23.45" rx="1.78" ry="1.78" style="fill:none; stroke:#010101; stroke-miterlimit:10; stroke-width:.38px;"/><g style="clip-path:url(#l);"><rect x=".35" y=".19" width="8.25" height="23.45" style="fill:none; stroke:#010101; stroke-miterlimit:10; stroke-width:.5px;"/><rect x="12.59" y="6.91" width="97.17" height="14.91" rx="1.31" ry="1.31" style="fill:none; stroke:#010101; stroke-miterlimit:10; stroke-width:.5px;"/><rect x="112" y="2.19" width="5.44" height="19.64" rx="1.31" ry="1.31" style="fill:none; stroke:#010101; stroke-miterlimit:10; stroke-width:.5px;"/></g><rect x="2.81" y="2.19" width="3.41" height="3.41" rx="1.7" ry="1.7" style="fill:#67c189; stroke:#010101; stroke-miterlimit:10; stroke-width:.5px;"/><rect x="106.09" y="2.19" width="3.41" height="3.41" rx="1.7" ry="1.7" style="fill:#615b67; stroke:#010101; stroke-miterlimit:10; stroke-width:.5px;"/><rect x="101.03" y="2.19" width="3.41" height="3.41" rx="1.7" ry="1.7" style="fill:#615b67; stroke:#010101; stroke-miterlimit:10; stroke-width:.5px;"/><rect x="95.98" y="2.19" width="3.41" height="3.41" rx="1.7" ry="1.7" style="fill:#615b67; stroke:#010101; stroke-miterlimit:10; stroke-width:.5px;"/><rect x="90.93" y="2.19" width="3.41" height="3.41" rx="1.7" ry="1.7" style="fill:#615b67; stroke:#010101; stroke-miterlimit:10; stroke-width:.5px;"/><rect x="3.53" y="16.08" width="1.97" height="1.97" rx=".98" ry=".98" style="fill:#fec75f; stroke:#010101; stroke-miterlimit:10; stroke-width:.5px;"/><rect x="3.53" y="19.3" width="1.97" height="1.97" rx=".98" ry=".98" style="fill:#fec75f; stroke:#010101; stroke-miterlimit:10; stroke-width:.5px;"/><rect x="12.63" y="2.91" width="7.68" height="1.97" style="fill:#fff; stroke:#010101; stroke-miterlimit:10; stroke-width:.5px;"/><rect x="40.12" y="2.91" width="7.68" height="1.97" style="fill:#67c189; stroke:#010101; stroke-miterlimit:10; stroke-width:.5px;"/><rect x="26.41" y="2.91" width="7.68" height="1.97" style="fill:#fff; stroke:#010101; stroke-miterlimit:10; stroke-width:.5px;"/><rect x="23.33" y="2.91" width="3.01" height="1.97" style="fill:#fec75f; stroke:#010101; stroke-miterlimit:10; stroke-width:.5px;"/><rect x="34.09" y="2.91" width="3.01" height="1.97" style="fill:#fec75f; stroke:#010101; stroke-miterlimit:10; stroke-width:.5px;"/><rect x="37.11" y="2.91" width="3.01" height="1.97" style="fill:#77acdd; stroke:#010101; stroke-miterlimit:10; stroke-width:.5px;"/></g></svg>