<?xml version="1.0" encoding="UTF-8"?><svg id="b" xmlns="http://www.w3.org/2000/svg" viewBox="0 0 77.21 72.04"><g id="c"><path d="m24.4,68.53l-.56.18c-1.68.54-3.52-.61-4.11-2.54L.29,2.33C.08,1.63.71.81,1.7.49l.33-.11c.99-.32,1.98-.02,2.23.67l21.97,63.01c.66,1.9-.15,3.92-1.82,4.46Z" style="fill:#615b67; stroke:#010101; stroke-miterlimit:10; stroke-width:.5px;"/><path d="m52.81,68.53l.56.18c1.68.54,3.52-.61,4.11-2.54L76.91,2.33c.21-.7-.42-1.53-1.4-1.85l-.33-.11c-.99-.32-1.98-.02-2.23.67l-21.97,63.01c-.66,1.9.15,3.92,1.82,4.46Z" style="fill:#615b67; stroke:#010101; stroke-miterlimit:10; stroke-width:.5px;"/><ellipse cx="18.45" cy="51.55" rx="3.29" ry="7.01" transform="translate(-14.65 7.93) rotate(-17.5)" style="fill:#010101;"/><ellipse cx="58.56" cy="51.55" rx="7.01" ry="3.29" transform="translate(-8.21 91.9) rotate(-72.5)" style="fill:#010101;"/><rect x=".25" y="68.04" width="76.71" height="4" rx="2" ry="2" style="fill:#010101;"/><rect x=".25" y="52.13" width="76.71" height="17.23" rx="2" ry="2" style="fill:#615b67;"/><rect x=".25" y="52.13" width="76.71" height="17.23" rx="2" ry="2" style="fill:none; stroke:#010101; stroke-miterlimit:10; stroke-width:.5px;"/><rect x="4.91" y="55.19" width="7.69" height="1.97" style="fill:#fec75f; stroke:#010101; stroke-miterlimit:10; stroke-width:.5px;"/><rect x="28.54" y="55.19" width="7.69" height="1.97" style="fill:#fff; stroke:#010101; stroke-miterlimit:10; stroke-width:.5px;"/><rect x="42.27" y="55.19" width="7.69" height="1.97" style="fill:#67c189; stroke:#010101; stroke-miterlimit:10; stroke-width:.5px;"/><rect x="49.96" y="55.19" width="7.69" height="1.97" style="fill:#fff; stroke:#010101; stroke-miterlimit:10; stroke-width:.5px;"/><rect x="63.68" y="55.19" width="9.2" height="1.97" style="fill:#67c189; stroke:#010101; stroke-miterlimit:10; stroke-width:.5px;"/><rect x="36.23" y="55.19" width="3.02" height="1.97" style="fill:#67c189; stroke:#010101; stroke-miterlimit:10; stroke-width:.5px;"/><rect x="39.25" y="55.19" width="3.02" height="1.97" style="fill:#fec75f; stroke:#010101; stroke-miterlimit:10; stroke-width:.5px;"/><rect x="57.65" y="55.19" width="3.02" height="1.97" style="fill:#fec75f; stroke:#010101; stroke-miterlimit:10; stroke-width:.5px;"/><rect x="60.67" y="55.19" width="3.02" height="1.97" style="fill:#77acdd; stroke:#010101; stroke-miterlimit:10; stroke-width:.5px;"/><rect x="70.91" y="61.93" width="1.97" height="1.97" rx=".99" ry=".99" style="fill:#67c189; stroke:#010101; stroke-miterlimit:10; stroke-width:.5px;"/></g></svg>